<svg width="188" height="102" viewBox="0 0 188 102" fill="none" xmlns="http://www.w3.org/2000/svg">
<rect width="188" height="102" fill="#222222"/>
<path d="M50.4 69.576C48.576 69.576 46.928 69.272 45.456 68.664C44.016 68.056 42.784 67.192 41.76 66.072C40.768 64.952 40 63.592 39.456 61.992C38.912 60.392 38.64 58.6 38.64 56.616C38.64 54.632 38.912 52.84 39.456 51.24C40 49.64 40.768 48.28 41.76 47.16C42.784 46.04 44.016 45.176 45.456 44.568C46.928 43.96 48.576 43.656 50.4 43.656C52.224 43.656 53.856 43.96 55.296 44.568C56.768 45.176 58 46.04 58.992 47.16C60.016 48.28 60.8 49.64 61.344 51.24C61.888 52.84 62.16 54.632 62.16 56.616C62.16 58.6 61.888 60.392 61.344 61.992C60.8 63.592 60.016 64.952 58.992 66.072C58 67.192 56.768 68.056 55.296 68.664C53.856 69.272 52.224 69.576 50.4 69.576ZM50.4 65.448C52.32 65.448 53.84 64.872 54.96 63.72C56.112 62.536 56.688 60.792 56.688 58.488V54.744C56.688 52.44 56.112 50.712 54.96 49.56C53.84 48.376 52.32 47.784 50.4 47.784C48.48 47.784 46.944 48.376 45.792 49.56C44.672 50.712 44.112 52.44 44.112 54.744V58.488C44.112 60.792 44.672 62.536 45.792 63.72C46.944 64.872 48.48 65.448 50.4 65.448ZM68.4293 64.776H75.0053V48.456H68.4293V44.232H80.2373V50.808H80.5253C80.7493 49.944 81.0693 49.112 81.4853 48.312C81.9013 47.512 82.4293 46.824 83.0693 46.248C83.7093 45.64 84.4933 45.16 85.4213 44.808C86.3493 44.424 87.4373 44.232 88.6853 44.232H91.6613V49.224H86.7653C84.8453 49.224 83.2773 49.8 82.0613 50.952C80.8453 52.072 80.2373 53.592 80.2373 55.512V64.776H89.2133V69H68.4293V64.776ZM113.099 64.776H112.859C112.603 65.416 112.267 66.04 111.851 66.648C111.467 67.224 110.987 67.736 110.411 68.184C109.835 68.6 109.163 68.936 108.395 69.192C107.627 69.448 106.731 69.576 105.707 69.576C103.211 69.576 101.195 68.76 99.6585 67.128C98.1225 65.496 97.3545 63.176 97.3545 60.168V44.232H102.587V59.4C102.587 63.336 104.299 65.304 107.723 65.304C108.395 65.304 109.051 65.224 109.691 65.064C110.331 64.872 110.907 64.6 111.419 64.248C111.931 63.896 112.331 63.464 112.619 62.952C112.939 62.408 113.099 61.768 113.099 61.032V44.232H118.331V69H113.099V64.776ZM136.792 69.576C134.104 69.576 131.784 69.144 129.832 68.28C127.912 67.416 126.36 66.264 125.176 64.824L128.392 61.944C129.48 63.128 130.696 64.04 132.04 64.68C133.416 65.288 135.032 65.592 136.888 65.592C138.584 65.592 139.944 65.304 140.968 64.728C142.024 64.152 142.552 63.256 142.552 62.04C142.552 61.528 142.456 61.096 142.264 60.744C142.072 60.392 141.8 60.104 141.448 59.88C141.096 59.656 140.68 59.48 140.2 59.352C139.752 59.224 139.272 59.128 138.76 59.064L134.824 58.44C133.864 58.312 132.888 58.104 131.896 57.816C130.904 57.528 130.008 57.128 129.208 56.616C128.44 56.072 127.8 55.384 127.288 54.552C126.808 53.72 126.568 52.664 126.568 51.384C126.568 48.856 127.528 46.936 129.448 45.624C131.4 44.312 133.96 43.656 137.128 43.656C139.432 43.656 141.416 44.008 143.08 44.712C144.776 45.384 146.184 46.328 147.304 47.544L144.376 50.616C143.736 49.88 142.824 49.208 141.64 48.6C140.456 47.96 138.888 47.64 136.936 47.64C133.448 47.64 131.704 48.744 131.704 50.952C131.704 52.008 132.072 52.744 132.808 53.16C133.576 53.544 134.472 53.8 135.496 53.928L139.432 54.552C140.424 54.712 141.4 54.92 142.36 55.176C143.352 55.432 144.232 55.832 145 56.376C145.8 56.888 146.44 57.56 146.92 58.392C147.432 59.224 147.688 60.28 147.688 61.56C147.688 64.056 146.712 66.024 144.76 67.464C142.84 68.872 140.184 69.576 136.792 69.576Z" fill="#F5F7F8"/>
<rect width="38" height="4" transform="translate(52 38) rotate(90)" fill="#F5F7F8"/>
</svg>
