<svg width="116" height="62" viewBox="0 0 116 62" fill="none" xmlns="http://www.w3.org/2000/svg">
<path d="M14.4 47.576C12.128 47.576 10.096 47.064 8.304 46.04C6.512 45.016 5.104 43.576 4.08 41.72C3.056 39.832 2.544 37.624 2.544 35.096C2.544 32.568 3.056 30.376 4.08 28.52C5.104 26.632 6.512 25.176 8.304 24.152C10.096 23.128 12.144 22.616 14.448 22.616C16.752 22.616 18.784 23.128 20.544 24.152C22.336 25.176 23.728 26.632 24.72 28.52C25.744 30.376 26.256 32.568 26.256 35.096C26.256 37.624 25.744 39.832 24.72 41.72C23.696 43.576 22.288 45.016 20.496 46.04C18.736 47.064 16.704 47.576 14.4 47.576ZM14.4 42.728C15.616 42.728 16.736 42.456 17.76 41.912C18.784 41.368 19.6 40.536 20.208 39.416C20.848 38.264 21.168 36.824 21.168 35.096C21.168 33.336 20.848 31.896 20.208 30.776C19.6 29.656 18.784 28.824 17.76 28.28C16.768 27.736 15.664 27.464 14.448 27.464C13.232 27.464 12.112 27.736 11.088 28.28C10.064 28.824 9.232 29.656 8.592 30.776C7.984 31.896 7.68 33.336 7.68 35.096C7.68 37.72 8.336 39.656 9.648 40.904C10.992 42.12 12.576 42.728 14.4 42.728ZM32.4773 47V42.584H38.2853V29.192C38.2853 28.136 37.7733 27.608 36.7493 27.608H32.9573V23.192H38.6693C39.9813 23.192 41.0533 23.576 41.8853 24.344C42.7173 25.08 43.1333 26.12 43.1333 27.464V28.04H43.3733C43.7253 26.248 44.4773 24.904 45.6293 24.008C46.8133 23.08 48.5253 22.616 50.7653 22.616H54.4613V27.992H49.2773C47.3893 27.992 45.9333 28.648 44.9093 29.96C43.8853 31.272 43.3733 32.84 43.3733 34.664V42.584H50.7653V47H32.4773ZM69.8505 47.576C66.9705 47.576 64.7785 46.696 63.2745 44.936C61.8025 43.144 61.0665 40.552 61.0665 37.16V23.192H66.1545V36.536C66.1545 38.488 66.5705 40.024 67.4025 41.144C68.2665 42.232 69.5785 42.776 71.3385 42.776C73.0985 42.776 74.5705 42.184 75.7545 41C76.9385 39.816 77.5305 38.104 77.5305 35.864V23.192H82.6185V47H78.2025L77.7705 43.448H77.5305C76.8905 44.6 75.8985 45.576 74.5545 46.376C73.2105 47.176 71.6425 47.576 69.8505 47.576ZM100.936 47.576C97.7998 47.576 95.3038 46.84 93.4478 45.368C91.5918 43.896 90.5358 41.944 90.2798 39.512H95.5118C95.7038 40.632 96.2638 41.544 97.1918 42.248C98.1518 42.952 99.4158 43.304 100.984 43.304C102.488 43.304 103.64 43 104.44 42.392C105.272 41.752 105.688 41.016 105.688 40.184C105.688 38.968 105.192 38.136 104.2 37.688C103.24 37.24 101.816 36.904 99.9278 36.68C98.2958 36.488 96.8078 36.12 95.4638 35.576C94.1518 35 93.1118 34.232 92.3438 33.272C91.5758 32.28 91.1918 31.048 91.1918 29.576C91.1918 27.496 92.0078 25.816 93.6398 24.536C95.2718 23.256 97.5438 22.616 100.456 22.616C103.368 22.616 105.624 23.272 107.224 24.584C108.824 25.896 109.752 27.688 110.008 29.96H105.112C104.984 29 104.488 28.248 103.624 27.704C102.76 27.128 101.688 26.84 100.408 26.84C99.0958 26.84 98.0558 27.096 97.2878 27.608C96.5198 28.088 96.1358 28.728 96.1358 29.528C96.1358 31.256 97.9918 32.312 101.704 32.696C103.464 32.888 105.032 33.224 106.408 33.704C107.784 34.152 108.872 34.872 109.672 35.864C110.472 36.824 110.872 38.184 110.872 39.944C110.904 41.384 110.488 42.68 109.624 43.832C108.792 44.984 107.624 45.896 106.12 46.568C104.648 47.24 102.92 47.576 100.936 47.576Z" fill="white"/>
<rect x="12" y="19" width="5" height="32" fill="white"/>
</svg>
